<svg width="537.6222442626954" xmlns="http://www.w3.org/2000/svg"  height="118.26676261500495" viewBox="0 0 369.6666666666667 81.31970055164705" ><defs ></defs><g  transform="matrix(0.13693224434756665,0,0,0.13693224434756665,0.00015879906209713494,0.00021362531700253636)" fill="white"><g  transform="matrix(0.06611192205990585,0,0,0.06611192205990585,115.85457876175953,18.4408791269782)"><g><path d="M2858.5-252.2c-238.3,34.9-415.6,82.4-581.3,155.9c-85.1,37.6-165.7,67.2-179.1,67.2s-80.6-13.4-147.8-27.8    c-179.1-41.2-539.2-26-767.6,31.4C871.7,51.4,566.3,193,264.4,396.3C-487.1,902.4-1083.6,1808-1174.1,2581.9    c-19.7,169.3-19.7,171.1-92.3,244.5c-437.1,441.6-598.3,1329.3-405.8,2225.9c146,685.2,608.2,1461.8,1073.1,1804    c153.2,112,163,121.8,180.9,200.6c9.9,44.8,51.1,149.6,92.3,232c228.4,471.2,746.1,908.3,1380.3,1164.5    c762.3,307.2,1735,335,2371,65.4l179.1-74.3l113.8,27.8c172.9,43,509.7,39.4,728.2-9.9c673.6-147.8,1339.1-593,1800.4-1209.2    c232.9-309,343.1-502.5,472.9-829.4c92.3-230.2,137.9-404,155.9-599.2c15.2-146,16.1-147.8,94.1-228.4    c218.6-224.8,378-584.9,451.4-1020.2c33.1-187.2,35.8-252.6,27.8-533.9c-11.6-466.7-70.8-760.5-232.9-1176.1    c-218.6-559.8-555.4-1035.5-937.8-1323c-98.5-74.3-154.1-126.3-154.1-146c0-54.6-75.2-240.1-149.6-371.7    C5657.6,469.8,4905.2-26.5,4125.1-197.6C3748.8-279.1,3198-303.3,2858.5-252.2z M3523.1-211.9    c675.4,74.3,1372.3,394.1,1812.1,834.8c187.2,187.2,372.6,450.6,415.6,588.5l11.6,34.9l-103.9-33.1    c-131.7-43-435.3-57.3-622.5-29.6c-389.6,55.5-791.8,248.1-1104.4,525.8c-118.2,106.6-274.1,342.2-342.2,515.9    c-90.5,232-118.2,409.4-108.4,683.4c5.4,131.7,15.2,256.2,21.5,277.7l11.6,39.4l-301.9-9.9c-283.9-8.1-659.3-57.3-691.5-90.5    c-6.3-6.3,16.1-67.2,51.1-134.4c292-559.8,450.6-1266.6,397.7-1776.2c-43-404-183.6-711.2-311.7-679.9    c-86.9,21.5-136.2,64.5-167.5,144.2l-31.4,78.8l55.5,102.1c133.5,238.3,200.6,565.2,183.6,890.4c-19.7,392.3-134.4,870.7-292,1211    c-51.1,110.2-54.6,114.7-102.1,104.8c-69-15.2-291.1-112-401.3-177.4c-118.2-70.8-317.1-256.2-405.8-382.5    c-163.9-230.2-246.3-463.1-271.4-757.8c-31.4-407.6,59.1-827.7,252.6-1158.2c75.2-126.3,206.9-285.7,287.5-342.2    c44.8-33.1,45.7-33.1,208.7,9.9c118.2,29.6,192.6,39.4,272.3,34.9c60.9-3.6,114.7-9.9,120-15.2c9.9-11.6-41.2-75.2-157.6-197.1    l-75.2-80.6l120-49.3c187.2-77,421-129.9,754.2-169.3C3119.1-231.6,3373.5-228,3523.1-211.9z M1673.4,191.2l62.7,11.6    l-121.8,128.1C1522,429.4,1471,503.8,1402,636.4c-169.3,333.2-234.7,630.6-218.6,998.7c13.4,310.8,45.7,461.3,141.5,657.5    c165.7,336.8,411.1,575.1,775.7,752.4c114.7,55.5,208.7,108.4,210.5,118.2c1.8,82.4-545.5,836.6-578.6,797.2    c-3.6-5.4-51.1-74.3-103.9-154.1c-340.4-517.7-785.6-931.6-1253.1-1166.2C38.7,2470.8-359,2407.2-416.3,2513.8    c-8.1,16.1-19.7,60.9-26,98.5c-9.9,60.9-5.4,74.3,47.5,137.9l59.1,72.6l169.3,9.9c463.1,27.8,890.4,261.6,1376.7,750.6    c121.8,123.6,266,285.7,320.7,360.1l96.7,137.9l-72.6,64.5c-213.2,187.2-468.5,315.3-721.1,368.1    c-183.6,35.8-499.8,25.1-671.8-25.1C-393,4327.7-930.5,3823.4-1088.1,3314.6c-52.8-172.9-51.1-180.9,94.1-338.6    c77-85.1,143.3-175.6,165.7-228.4c41.2-94.9,37.6-112-11.6-85.1c-19.7,9.9-62.7,17.9-98.5,17.9c-35.8,0-96.7,11.6-134.4,25.1    c-37.6,13.4-70.8,25.1-72.6,25.1c-1.8,0,1.8-49.3,8.1-112c34.9-320.7,213.2-780.2,429.1-1104.4    C-274.8,865.7,500.9,336.3,1180.8,224.3C1438.7,181.3,1563.3,173.3,1673.4,191.2z M5671.1,1267l114.7,39.4l54.6,179.1    c33.1,112,74.3,206.9,106.6,252.6c59.1,84.2,94.1,103.9,94.1,57.3c0-17.9,16.1-64.5,34.9-103.9c19.7-39.4,39.4-100.3,44.8-134.4    c3.6-34.9,13.4-62.7,19.7-62.7c23.3,0,223,163,305.4,248.1c407.6,429.1,655.7,902,770.3,1469    c133.5,667.3,82.4,1227.2-161.2,1754.7c-55.5,121.8-154.1,274.1-175.6,274.1c-5.4,0-19.7-45.7-31.4-100.3    c-62.7-303.7-352-698.7-685.2-937.8c-141.5-100.3-389.6-230.2-581.3-301.9c-118.2-44.8-134.4-45.7-411.1-45.7    c-266,0-299.2,3.6-435.3,45.7c-190.8,57.3-415.6,169.3-565.2,282.2c-65.4,49.3-124.5,88.7-131.7,88.7    c-17.9,0-157.6-241.8-232-399.5c-69-149.6-189-484.6-179.1-494.4c3.6-5.4,106.6-15.2,228.4-25.1c515.9-43,896.6-141.5,1297.9-335    c325.2-157.6,602.8-378,747.9-591.2c80.6-118.2,78.8-189-3.6-258c-55.5-45.7-70.8-51.1-141.5-41.2    c-110.2,13.4-112,15.2-183.6,134.4c-35.8,60.9-124.5,169.3-197.1,242.7c-279.5,283.9-681.7,484.6-1248.7,624.3    c-153.2,37.6-532.1,94.9-547.3,82.4c-19.7-16.1-52.8-292-52.8-435.3c0-395.9,134.4-724.6,411.1-1004.1    c264.2-267.8,583.1-435.3,998.7-525.8C5145.3,1201.6,5509.9,1211.4,5671.1,1267z M-1141,3307.4    c98.5,379.8,463.1,807.1,893.9,1045.3c342.2,189,627.9,252.6,953.1,215c289.3-33.1,598.3-155.9,826.8-330.5    c55.5-41.2,108.4-80.6,118.2-86.9c21.5-13.4,144.2,183.6,234.7,376.2c65.4,141.5,195.3,486.4,195.3,517.7    c0,9.9-45.7,16.1-103.9,16.1c-155.9,0-504.3,44.8-714.8,92.3c-541.9,121.8-1030.1,371.7-1321.2,679    c-223,234.7-252.6,336.8-126.3,429.1c55.5,39.4,70.8,43,133.5,31.4c39.4-6.3,78.8-13.4,88.7-15.2c9.9,0,52.8-55.5,96.7-124.5    c230.2-364.6,660.2-642.2,1256.7-811.5c220.4-62.7,451.4-108.4,609.1-123.6l124.5-11.6l23.3,112c33.1,165.7,29.6,545.5-8.1,679.9    c-37.6,137.9-118.2,311.7-210.5,455c-220.3,338.6-665.5,614.5-1163.6,721.1c-200.6,43-522.2,39.4-698.7-8.1    c-70.8-19.7-136.2-41.2-143.3-47.5c-6.3-6.3-35.8-88.7-64.5-183.6c-51.1-171.1-96.7-261.6-161.2-318.9    c-34.9-31.4-34.9-31.4-34.9,8.1c0,23.3-8.1,49.3-17.9,59.1c-9.9,9.9-33.1,70.8-52.8,134.4l-35.8,116.4l-131.7-104.8    c-189-151.4-421-421-567-659.3c-183.6-299.2-315.3-645.8-389.6-1023.8c-39.4-200.6-44.8-264.2-44.8-586.7    c-1.8-318.9,3.6-384.3,37.6-550c39.4-198.9,120-435.3,203.3-599.2c49.3-100.3,144.2-242.7,154.1-232.9    C-1175,3179.3-1157.1,3238.5-1141,3307.4z M2820,3285c172.9,35.8,360.1,60.9,576.9,75.2l141.5,11.6l43,159.4    c55.5,213.2,144.2,447,252.6,670l90.5,182.7l-70.8,64.5c-116.4,104.8-372.6,413.8-496.2,596.6    c-70.8,106.6-124.5,172.9-141.5,171.1c-15.2-1.8-100.3-21.5-190.8-44.8c-222.1-57.3-438.9-92.3-667.3-104.8l-192.6-9.9    l-35.8-141.5c-54.6-208.7-155.9-478.3-259.8-687l-90.5-183.6l149.6-157.6c169.3-177.4,342.2-392.3,455-573.3l77-121.8l100.3,31.4    C2618.4,3238.5,2734.9,3268,2820,3285z M5513.4,3929.1c163,41.2,458.6,187.2,619,307.2c236.5,175.6,460.4,435.3,578.6,671.8    c51.1,100.3,118.2,311.7,118.2,371.7c0,17.9-54.6,88.7-121.8,157.6c-108.4,110.2-206.9,259.8-206.9,311.7    c0,21.5,84.2,11.6,236.5-25.1c52.8-13.4,100.3-19.7,104.8-15.2c21.5,21.5-35.8,309-102.1,507.9    c-144.2,437.1-350.2,777.5-673.6,1107.1c-561.6,576.9-1258.5,906.5-1900.7,906.5c-190.8,0-216.8-13.4-146-70.8    c210.5-177.4,412-579.5,478.3-947.7c29.6-172.9,26-549.1-8.1-738.1c-62.7-354.7-279.5-693.3-589.4-923.5    c-121.8-90.5-352-216.8-468.5-258l-54.6-17.9l26-52.8c106.6-203.3,313.5-500.7,488.2-695.1l70.8-78.8l100.3,153.2    c447,685.2,1104.4,1203.9,1679.5,1330.2c220.4,49.3,343.1,39.4,378-27.8c8.1-16.1,19.7-60.9,25.1-98.5c8.1-62.7,1.8-77-51.1-136.2    c-60.9-67.2-60.9-67.2-200.6-75.2c-323.4-16.1-655.7-146-974.6-378c-151.4-108.4-387.9-321.6-520.4-468.5    c-136.2-149.6-310.8-374.4-311.7-402.2c0-17.9,157.6-149.6,283.9-234.7c155.9-104.8,372.6-187.2,573.3-215    C5088,3874.4,5363.8,3890.6,5513.4,3929.1z M2751,5217.1c172.9,21.5,430.8,67.2,440.7,78.8c1.8,1.8-41.2,92.3-94.1,200.6    c-113.8,232-226.6,533.9-275.9,730.9c-123.6,502.5-129.9,1006.8-17.9,1347.2c96.7,287.5,171.1,354.7,318.9,285.7    c44.8-21.5,62.7-45.7,88.7-113.8l31.4-86.9l-54.6-94.9c-241.8-425.5-248.1-1031.9-21.5-1772.7c45.7-146,151.4-405.8,179.1-440.7    c13.4-15.2,210.5,51.1,328.7,112c307.2,155.9,524,382.5,673.6,704.9c104.8,226.6,123.6,321.6,123.6,667.3    c0,277.7-5.4,320.7-45.7,482.8c-82.4,328.7-223,594.8-412,780.2l-106.6,106.6l-197.1-45.7c-149.6-35.8-215-44.8-279.5-34.9    c-45.7,6.3-86.9,16.1-92.3,25.1c-8.1,13.4,64.5,103.9,163,202.4c34.9,34.9,60.9,65.4,57.3,69c-27.8,25.1-232,96.7-389.6,137.9    c-285.7,70.8-471.2,90.5-805.3,78.8c-336.8-9.9-506.1-41.2-839.3-153.2C896.8,8276.1,397.9,7919.6,82.6,7451.1    c-74.3-108.4-146-249.9-134.4-261.6c3.6-5.4,59.1,8.1,121.8,26c94.1,27.8,157.6,34.9,344.9,34.9c419.2-1.8,738.1-103.9,1107.1-352    c283.9-189,458.6-392.3,578.6-671.8c104.8-249.9,153.2-608.2,114.7-876c-9.9-72.6-15.2-136.2-8.1-144.2    C2218.9,5184,2528,5188.5,2751,5217.1z"></path></g></g></g><g  transform="matrix(3.5338807704831767,0,0,3.5338807704831767,97.62850466644032,-5.273968911247952)" fill="white"><path d="M12.28 6.199999999999999 l0.14 0.14 l0 13.6 q-0.8 0.18 -1.89 0.18 t-1.93 -0.12 l-3.14 -7.16 q-0.56 -1.22 -1.14 -2.82 l-0.06 0.02 q0.24 2.92 0.24 5.98 l0 3.98 q-0.62 0.12 -1.5 0.12 t-1.48 -0.12 l0 -13.6 q0.76 -0.18 1.83 -0.18 t1.91 0.12 l3.1 7.14 q0.84 1.98 1.24 3.04 l0.08 -0.04 q-0.24 -2.78 -0.24 -5.9 l0 -2.44 q0 -1.04 0.42 -1.49 t1.36 -0.45 l1.06 0 z M22.9 16.02 l-5.22 0 q0.04 0.9 0.46 1.4 t1.38 0.5 q0.48 0 1.11 -0.14 t1.45 -0.46 q0.66 0.68 0.82 1.84 q-1.6 1.14 -3.92 1.14 q-1.26 0 -2.11 -0.4 t-1.38 -1.12 t-0.75 -1.7 t-0.22 -2.14 q0 -1.12 0.27 -2.07 t0.82 -1.65 t1.4 -1.1 t1.99 -0.4 q0.96 0 1.73 0.32 t1.31 0.88 t0.83 1.34 t0.29 1.7 q0 1.22 -0.26 2.06 z M17.66 13.86 l2.64 0 l0 -0.22 q0 -0.74 -0.33 -1.22 t-0.99 -0.48 q-0.64 0 -0.95 0.45 t-0.37 1.47 z M32.26 10.9 q1.44 1.44 1.44 4.12 q0 1.2 -0.31 2.18 t-0.9 1.67 t-1.45 1.06 t-1.98 0.37 t-1.97 -0.38 t-1.44 -1.07 t-0.89 -1.67 t-0.3 -2.16 q0 -1.2 0.3 -2.17 t0.88 -1.67 t1.44 -1.08 t1.98 -0.38 q1.98 0 3.2 1.18 z M29.08 12.059999999999999 q-0.44 0 -0.71 0.21 t-0.43 0.57 t-0.22 0.83 t-0.06 1.01 q0 0.84 0.05 1.45 t0.2 1.02 t0.42 0.61 t0.71 0.2 q0.88 0 1.16 -0.77 t0.28 -2.19 q0 -1.44 -0.28 -2.19 t-1.12 -0.75 z M47.36 11.78 l0 -0.24 q0 -2.96 -2.2 -2.96 q-1.26 0 -1.82 1.15 t-0.56 3.39 q0 2.22 0.7 3.3 t2.04 1.08 q0.7 0 1.55 -0.33 t1.85 -1.05 q0.5 0.34 0.93 0.93 t0.53 1.13 q-0.46 0.44 -1.07 0.83 t-1.32 0.67 t-1.48 0.45 t-1.55 0.17 q-1.54 0 -2.6 -0.59 t-1.71 -1.57 t-0.94 -2.26 t-0.29 -2.66 q0 -1.8 0.45 -3.15 t1.22 -2.25 t1.81 -1.35 t2.22 -0.45 q1.2 0 2.18 0.32 t1.67 0.88 t1.06 1.32 t0.37 1.64 q0 1.78 -1.82 1.78 q-0.54 0 -1.22 -0.18 z M60.53999999999999 18.56 q-0.1 0.42 -0.38 0.9 t-0.58 0.7 q-1.4 -0.04 -2.16 -1.06 q-1.3 1.2 -2.82 1.2 q-0.78 0 -1.36 -0.25 t-0.98 -0.67 t-0.6 -0.97 t-0.2 -1.15 q0 -0.86 0.31 -1.51 t0.85 -1.08 t1.26 -0.65 t1.54 -0.22 q0.46 0 0.81 0.01 t0.61 0.03 l0 -0.38 q0 -1.26 -1.3 -1.26 q-0.84 0 -2.94 0.64 q-0.6 -0.7 -0.76 -2.18 q0.48 -0.18 1.07 -0.34 t1.21 -0.28 t1.22 -0.19 t1.08 -0.07 q0.7 0 1.35 0.2 t1.14 0.61 t0.78 1.06 t0.29 1.55 l0 4.06 q0 0.92 0.56 1.3 z M54.49999999999999 17.06 q0 0.94 1.08 0.94 q0.56 0 1.26 -0.58 l0 -1.6 q-0.4 -0.02 -0.67 -0.03 t-0.41 -0.01 q-1.26 0 -1.26 1.28 z M61.71999999999999 11.46 q0.1 -0.4 0.38 -0.89 t0.56 -0.71 q1.84 0.14 2.56 1.82 q0.76 -1.8 2.5 -1.8 q0.52 0 1.32 0.16 q0 0.62 -0.21 1.47 t-0.57 1.45 q-0.34 -0.12 -1.02 -0.2 q-1 0 -1.64 1.02 l0 6.22 q-0.66 0.12 -1.55 0.12 t-1.57 -0.12 l0 -6.46 q0 -1.5 -0.76 -2.08 z M76.86 10 q0.12 0.56 0.12 1.12 t-0.12 1.1 l-2.38 -0.04 l0 4.6 q0 0.94 0.88 0.94 l1.12 0 q0.26 0.72 0.26 1.32 t-0.08 0.86 q-1.48 0.2 -2.72 0.2 q-2.52 0 -2.52 -2.78 l0 -5.12 l-1.56 0.02 q-0.14 -0.5 -0.14 -1.09 t0.14 -1.13 l1.56 0.04 l0 -1.16 q0 -1.02 0.39 -1.45 t1.31 -0.43 l1.22 0 l0.14 0.14 l0 2.9 z"></path></g></svg>